<svg id="Layer_1" data-name="Layer 1" xmlns="http://www.w3.org/2000/svg" viewBox="0 0 300 300"><title>WOTB favicon</title><polygon points="236.26 113.13 169.12 113.13 171.05 270.92 150 293.3 126.53 270.92 127.98 113.13 63.74 113.13 63.74 80.36 236.1 80.36 236.26 113.13"/><path d="M170.19,32.29c-1.11,1.92-4.17,3.36-6.53,3.66a64.8,64.8,0,0,1-10,.25c-1.16,0-2.33-.05-3.49-.05-.59,0-1.2,0-1.78-.06a32.71,32.71,0,0,0-4.44.09c-9.63,1.27-16.12-1.11-16.79-12.35-.69-11.85,3.27-18,14.57-20a50.37,50.37,0,0,1,14.4-.36A19.14,19.14,0,0,1,170.19,32.29Z"/><rect x="137.11" y="60.62" width="25.77" height="12.01" rx="6" ry="6"/><rect x="137.11" y="42.55" width="25.77" height="12.01" rx="6" ry="6"/></svg>