<?xml version="1.0" encoding="utf-8"?>
<!-- Generator: Adobe Illustrator 22.1.0, SVG Export Plug-In . SVG Version: 6.00 Build 0)  -->
<svg version="1.1" id="Layer_1" xmlns="http://www.w3.org/2000/svg" xmlns:xlink="http://www.w3.org/1999/xlink" x="0px" y="0px"
	 viewBox="0 0 571.3 113.2" style="enable-background:new 0 0 571.3 113.2;" xml:space="preserve">
<g>
	<path d="M72.3,20.3c-1,3-1.9,5.6-2.9,8.2C65.8,39,62,49.5,58.4,60.1c-0.7,2-1.7,2.8-3.8,2.6c-2.1-0.2-4.2-0.1-6.2,0
		c-1.5,0.1-2.3-0.5-2.7-2c-2-6.1-4.2-12.2-6.4-18.3c-0.2-0.5-0.4-1-0.6-1.5c-0.2,0-0.4,0-0.6-0.1c-0.8,2.2-1.5,4.3-2.3,6.5
		c-1.5,4.4-3,8.8-4.4,13.2c-0.5,1.6-1.3,2.4-3.1,2.3c-2.4-0.1-4.8,0.1-7.2-0.1c-0.7-0.1-1.8-0.7-2.1-1.4C14.1,48,9.3,34.7,4.4,21.4
		c-0.1-0.3-0.1-0.6-0.1-1.2c3.4,0,6.6-0.1,9.9,0.1c0.6,0,1.3,1.2,1.6,2c3.2,8.5,6.3,17.1,9.4,25.6c0.3,0.8,0.6,1.6,1.2,2.9
		c0.4-0.9,0.7-1.4,0.9-1.9c1.9-5.4,3.6-10.9,5.7-16.3c1.1-2.9,1.4-5.7,0.1-8.5c-0.5-1.1-0.7-2.3-1.2-3.8c3.5,0,6.7-0.1,9.9,0.1
		c0.5,0,1.2,1.2,1.4,1.9c2.9,8.6,5.7,17.3,8.5,26c0.2,0.7,0.5,1.4,1.4,2.2c0.7-2.1,1.4-4.1,2.1-6.2c2.4-7.2,4.8-14.4,7.1-21.6
		c0.6-1.7,1.4-2.4,3.2-2.3C67.5,20.4,69.7,20.3,72.3,20.3z"/>
	<path d="M273.6,28.2c-7.3-3.1-14.9-3.1-22.2-0.1c-11.6,4.7-15,20.2-6.5,29.2c4.5,4.8,10.4,6.3,16.8,6.3c0.1,0.2,0.1,0.4,0.2,0.6
		c4-1,8.2-1.5,11.9-3.1c7.3-3.1,10.6-9.1,10.5-17C284.3,36.5,280.5,31.2,273.6,28.2z M263,56.1c-6.9,0-12-4.8-11.9-11.4
		c0.1-6.7,4.6-11.4,11-11.3c7.1,0.1,11.6,4.7,11.6,11.8C273.7,51.8,269.5,56.1,263,56.1z"/>
	<path d="M112,28.4c-7.6-3.4-15.4-3.4-23-0.1c-12.4,5.2-12.7,19.9-7.7,26.9c4.5,6.3,11.1,8.2,18.4,8.3c0.1,0.2,0.1,0.4,0.2,0.6
		c4.1-1,8.3-1.6,12.1-3.2c7.1-3,10.3-9,10.3-16.6C122.3,36.9,118.7,31.5,112,28.4z M100.8,56.1C94,56.1,89,51.4,89,44.9
		c0-6.7,4.4-11.4,10.9-11.5c7.1-0.1,11.7,4.5,11.8,11.7C111.7,51.8,107.4,56.2,100.8,56.1z"/>
	<path d="M194.7,27c-5.3-0.7-10.8-0.2-16.2-0.2c-1.5,0-1.8,0.9-1.8,2.2c0.1,5.3,0,10.5,0,15.8h0.1c0,5.4,0,10.9,0,16.3
		c0,1.2,0.2,2,1.7,2c5.3-0.2,10.7,0.1,16-0.5c10.4-1.3,16.4-8.2,16.4-18.1C211,34.7,205.3,28.3,194.7,27z M198.4,52.9
		c-1.7,2.6-8.1,4.2-11,3.1c-0.4-0.2-0.9-0.9-1-1.4c-0.1-6.9,0-13.7,0-20.8c1-0.1,1.6-0.2,2.3-0.2c4.2-0.2,8.4,0,10.5,4.4
		C201.5,43,201.6,48.2,198.4,52.9z"/>
	<path d="M567,61.1c0,1.5-0.6,2-2,1.9c-1.9-0.1-3.8-0.1-5.8,0c-1.5,0.1-2-0.5-1.9-1.9c0.1-3.6,0-7.2,0-10.8c0-1.5-0.5-2.1-2.1-2.1
		c-4.1,0.1-8.1,0.1-12.2,0c-1.4,0-2,0.5-1.9,2c0.1,3.6,0,7.2,0.1,10.8c0,1.4-0.4,2-1.9,2c-1.8-0.1-3.5-0.2-5.3,0
		c-2,0.3-2.5-0.6-2.5-2.4c0.1-8.9,0.1-17.7,0.2-26.6c0-1.8-0.1-3.7,0.1-5.5c0.1-0.6,0.9-1.4,1.5-1.5c2.5-0.2,4.9-0.1,7.7-0.1
		c0,4,0.1,7.5,0,11c0,1.8,0.5,2.6,2.5,2.5c3.7-0.1,7.5-0.1,11.3,0c1.8,0.1,2.6-0.5,2.5-2.5c-0.1-3.6,0-7.2,0-11.1
		c3.1,0,6-0.1,8.8,0.1c0.4,0,1,1.1,1,1.7C567,39.5,567,50.3,567,61.1z"/>
	<path d="M421.2,45.3c1.5-1.9,3.1-3.5,4.3-5.4c3.5-5.6,1.1-11.6-5.5-12.3c-7.1-0.7-14.3-0.4-21.5-0.6c-0.1,0-0.2,0.2-0.3,0.2
		c0,11.4,0,22.8,0,34.1c0,0.5,0.6,1.5,1,1.5c2.7,0.1,5.5,0.1,8.5,0.1V48.6c0.7-0.1,1.2,0,1.7-0.1c2.7-0.6,4.5,0.1,5.7,2.8
		c1.7,3.5,3.8,6.8,5.8,10.2c0.3,0.6,0.9,1.4,1.4,1.5c3.1,0.1,6.1,0.1,9.2,0.1c0.1-0.3,0.1-0.6,0.2-0.8
		C428.2,56.5,424.7,50.8,421.2,45.3z M407.5,42.7c0-2.8-0.1-5.7,0.1-8.5c0-0.6,0.9-1.5,1.5-1.5c1.7-0.1,3.5,0,5.2,0.2
		c1.9,0.3,3,1.5,3,3.5C417.1,42.8,415.1,44,407.5,42.7z"/>
	<path d="M156.7,45.3c1.7-2.2,3.4-4,4.6-6.1c2.8-5.1,0.4-10.9-5.2-11.5c-7.4-0.9-14.9-0.8-22.6-1.1c0,3.6,0,6.6,0,9.6
		c0,8.2,0.1,16.4,0.1,24.7c0,1.7,0.5,2.3,2.2,2.1c1.6-0.2,3.2-0.2,4.8,0c2,0.2,2.6-0.6,2.5-2.6c-0.1-3.9,0-7.8,0-11.7
		c0.9-0.1,1.4-0.1,2-0.2c2.7-0.7,4.3,0.4,5.5,2.8c1.7,3.4,3.8,6.7,5.7,10c0.4,0.7,1,1.7,1.5,1.7c3.1,0.1,6.2,0,9.8-0.1
		C163.7,56.4,160.1,50.8,156.7,45.3z M147.5,43.1c-1.3,0.1-2.7,0-4.5,0c0-3.2-0.1-6,0.1-8.8c0-0.6,0.9-1.6,1.4-1.6
		c1.8-0.1,3.7-0.2,5.5,0.3c1.1,0.3,2.3,1.5,2.7,2.6C153.8,39.4,151.4,42.8,147.5,43.1z"/>
	<path d="M474.8,47.9c-0.1,9.3-5.8,15.3-15.1,15.7c-2.3,0.1-4.7,0-6.9-0.5c-7-1.3-11.1-5.7-11.4-12.8c-0.3-7.7-0.1-15.3-0.1-23.2h10
		c0,0.8,0.1,1.5,0.1,2.2c0,6.3-0.1,12.6,0,18.9c0.1,6.3,3.4,8.9,9.5,7.7c2.9-0.6,4.4-2,4.9-4.9c0.3-1.9,0.4-3.8,0.4-5.7
		c0-6,0-12,0-18.2h8.6c0.1,0.6,0.2,1.3,0.2,2C474.8,35.4,474.9,41.6,474.8,47.9z"/>
	<path d="M389.1,26.7c-0.1,0.4-1.5,1-2.4,1c-4.1,0.1-8.3,0.1-12.9,0.1c0,2.5,0,5.2,0,7.8c0.1,9.4,0.4,18.8,0.3,28.3
		c0,1.3-1.6,2.8-2.7,3.8c-2.6,2.5-2.6,2.3-5.1,0.1c-1.9-1.6-2.7-3.4-2.6-6c0.3-10.1,0.4-20.1,0.5-30.2c0-1.3,0-2.5,0-4.1h-14.8V20
		h39.7C389.2,22.3,389.4,24.5,389.1,26.7z"/>
	<path d="M323.6,27c-0.2,1.9-0.3,3.9-0.8,5.8c-0.1,0.6-1.3,1.2-2.1,1.2c-4.4,0.1-8.8,0-13.2-0.1c-1.8-0.1-2.6,0.5-2.6,2.4
		c0.1,6.6-0.7,5.3,5.2,5.5c2.2,0.1,4.5,0,6.7,0.1c0.2,0,0.4,0.2,0.7,0.3v6.2c-3.3,0-6.5,0.2-9.7-0.1c-2.4-0.2-3,0.8-3,3
		c0.1,3.7,0,7.5,0,11.6c-2.9,0-5.3,0-7.7,0c-1.4,0-1.8-0.5-1.8-1.8c0.1-3.4,0.2-6.7,0.2-10.1c0-7.3-0.1-14.7-0.2-22c0-1.2,0-2,1.5-2
		c8.6,0,17.3-0.1,25.9-0.1C323.1,26.8,323.2,26.9,323.6,27z"/>
	<path d="M521.1,26.9c-0.4,2.6-0.7,4.9-1,7.3h-12.3v25c0,3.7,0,3.7-3.8,3.7c-1.4,0-2.9,0-4.3-0.1c-0.5,0-0.9-0.2-1.6-0.3V34.1h-13.4
		c0.5-2.4,0.8-4.4,1.3-6.4c0.1-0.4,0.8-0.8,1.2-0.8C498.3,26.9,509.5,26.9,521.1,26.9z"/>
	<path d="M77.8,100.7c-0.1-0.1-0.1-0.3-0.2-0.4c2.6-3.3,2.1-6.7-1.3-7.2c-2.9-0.5-6-0.1-9-0.1v17.6c2.6,0,4.9,0,7.3,0
		c3.1,0,5.2-1.2,5.9-3.5C81.5,104.7,80.6,102.7,77.8,100.7z M70.1,94.5c1.6,0.1,3.1,0,4.5,0.3c1.6,0.3,2.1,1.6,1.9,3.1
		c-0.2,1.5-1.1,2.2-2.6,2.1c-1.2-0.1-2.4,0-3.8,0V94.5z M74.9,108.4c-1.4,0.2-2.8,0-4.6,0V102c1.5,0,3.1-0.2,4.6,0.1
		c2,0.3,3,1.8,3,3.7C78,107.8,76.5,108.2,74.9,108.4z"/>
	<path d="M423.6,101.9c0.9-1.3,1.8-2.4,2.4-3.6c1.1-2.4-0.1-5-2.6-5.3c-3-0.4-6.1-0.1-9.1-0.1v17.5h2.7v-7.3c2.9-1,4.8-0.3,5.9,2.3
		c0.5,1.2,1.5,2.3,2,3.5c0.9,1.8,2.1,2.1,4,1.3C426.9,107.3,425.2,104.5,423.6,101.9z M422.5,99.6c-1.5,0.9-3.5,1-5.6,1.5V94
		c2.3,0.7,4.4,1.1,6.1,2.1C423.4,96.3,423.2,99.2,422.5,99.6z"/>
	<path d="M496.1,94.9c0,5.1,0,10.2,0,15.5c-1,0-1.8,0.1-2.9,0.1v-8H483v7.9c-1,0.1-1.7,0.1-2.7,0.2V92.9c1.8-0.6,2.7-0.2,2.5,1.8
		c-0.1,1.7,0,3.5,0,5.6c3.3,0,6.3,0.1,9.3-0.1c0.4,0,1-1.1,1-1.7c0.1-1.8,0.1-3.6,0.1-5.4C496,92.3,496.1,92.5,496.1,94.9z"/>
	<path d="M357.6,92.8v17.6h-2.7v-7.9h-10.4v7.8c-0.9,0.1-1.6,0.1-2.5,0.2V92.9c1.7-0.7,2.5-0.3,2.5,1.8c0.1,5.6,0.1,5.6,5.7,5.6h4.5
		v-7.5H357.6z"/>
	<path d="M393.3,104c-0.3,4.7-3.2,7.2-7.7,7c-4.5-0.2-7.1-2.8-7.2-7.5c-0.1-3.1,0-6.2,0-9.4c0-0.4,0.1-0.8,0.1-1.3h2.8
		c0,2.7,0,5.4,0,8.1c0,1.3,0,2.6,0.2,3.8c0.5,2.9,2.1,4.2,5,4c2.6-0.1,4.2-1.6,4.3-4.5c0.1-3.7,0-7.5,0-11.4
		c1.7-0.6,2.6-0.3,2.6,1.5C393.3,97.6,393.5,100.8,393.3,104z"/>
	<path d="M322.7,108.3c-0.1,0.3-0.2,0.6-0.2,0.9c-5.9,3-11.7,2.3-14.6-1.7c-2.7-3.7-2.4-8.9,0.7-12.4c3.3-3.7,9.4-4,14.3-0.8
		c-0.2,0.6-0.4,1.3-0.8,2.2c-1.5-0.5-2.9-1.1-4.2-1.5c-2.6-0.9-5-0.7-7.1,1.4c-2,2-2.5,5.3-1.2,8c1.2,2.7,3.3,4.3,6.3,4.3
		c1.5,0,2.9-0.7,4.4-0.8C321.2,107.8,321.9,108.1,322.7,108.3z"/>
	<path d="M449.4,96.2c-2,2-2.6,5.4-1.4,8c1.2,2.6,3.1,4.4,6,4.4c1.6,0,3.3-0.6,4.9-0.8c0.7-0.1,1.4,0.4,2,0.9
		c-5.3,3.4-11.4,2.9-14.4-0.8c-3-3.7-2.8-9.2,0.4-12.7c3.3-3.7,9.3-4,14.3-0.8c0,0.2,0,0.5-0.1,0.7c-0.2,0.4-0.4,0.9-0.7,1.5
		c-1.4-0.5-2.8-1-4.2-1.5C453.7,94.1,451.4,94.3,449.4,96.2z"/>
	<path d="M230.9,107.3c-0.6,2.1-2.7,3.8-5.4,3.6c-2.1-0.1-4.2-0.7-6.2-1.4c-2.1-0.7-2-0.8-0.7-3c1.7,0.7,3.3,1.4,5,2.1
		c1.8,0.7,3.4,0.6,4.4-1.1c0.9-1.7-0.5-2.6-1.7-3.5c-1.5-1.2-3.2-2.2-4.7-3.3c-1.8-1.4-2.7-3.2-1.9-5.5c0.8-2.2,2.6-2.8,4.8-2.9
		c2.8-0.2,5.2,0.6,6.8,3.3c-0.6,0.5-1.1,0.9-1.6,1.3c-1.2-0.9-2.3-2-3.5-2.3c-1.2-0.2-2.6,0.5-3.9,0.8c0.4,1.1,0.6,2.5,1.4,3.2
		c1.4,1.4,3.3,2.3,4.8,3.5C230.2,103.3,231.5,105,230.9,107.3z"/>
	<path d="M107.5,93.7c-0.2-0.5-0.9-1-1.3-1c-0.5,0-1.2,0.4-1.4,0.8c-2.5,5.6-5,11.1-7.4,16.7c2,0.8,2.9-0.1,3.5-1.8
		c0.4-1.1,0.9-2.8,1.7-3c2.1-0.4,4.3-0.5,6.4,0c0.8,0.2,1.4,2,1.8,3.1c0.6,1.8,1.5,2.4,3.5,1.6C111.9,104.7,109.7,99.2,107.5,93.7z
		 M102.9,103.3c0.9-2.2,1.7-4.3,2.8-6.9c1,2.5,1.9,4.6,2.8,6.9H102.9z"/>
	<path d="M143.3,102.5c-1.6,0.7-3.4,0.9-5.1,1.2c-0.3,0.1-0.8-0.5-1.1-0.8c0.3-0.3,0.6-0.9,1-1c1-0.3,2.1-0.3,3-0.6
		c1.5-0.4,2.5-1.5,2.4-3.2c-0.1-1.7-0.9-2.9-2.7-3.2c-1.2-0.2-2.4-0.1-3.6-0.3c-1.5-0.2-1.9,0.5-1.9,1.9c0.1,4.5,0,9.1,0,13.8
		c-0.8,0.1-1.6,0.1-2.6,0.2V92.8c3.1,0,6-0.2,8.9,0.1c2.1,0.2,4,1.2,4.4,3.7C146.7,99.2,145.7,101.5,143.3,102.5z"/>
	<path d="M263,94.8c-1.8-0.1-3.7,0-5.8,0v15.7h-2.9V94.7h-7.3c-0.1-0.2-0.2-0.5-0.3-0.7c0.6-0.5,1.2-1.3,1.9-1.3
		c5.3-0.1,10.5-0.1,15.8-0.1C264.9,94.1,264.7,94.8,263,94.8z"/>
	<path d="M178.9,92.6c-0.1,2.2-0.1,2.1-2.7,2.1c-1.4,0-2.9,0-4.7,0v15.6h-2.8V94.8h-7c-0.2-0.2-0.3-0.4-0.5-0.6
		c0.5-0.5,0.9-1.5,1.4-1.5C168.1,92.6,173.5,92.6,178.9,92.6z"/>
	<path d="M373.9,8.9c-0.3,0.4-1,0.8-1.5,0.8c-0.8,0.1-1.5,0.1-2.3,0.1c-0.3,0-0.5,0-0.8,0c-0.1,0-0.3,0-0.4,0c-0.3,0-0.7,0-1,0
		c-2.2,0.3-3.7-0.3-3.9-2.8c-0.2-2.7,0.8-4.1,3.4-4.6c1.1-0.2,2.2-0.2,3.3-0.1C373.8,2.7,375.5,6.1,373.9,8.9z"/>
	<path d="M199.6,92.7v17.7h-2.5V92.8C197.8,92.8,198.6,92.8,199.6,92.7z"/>
	<path d="M372.3,12.8c-0.1,0.7-1.7,1.2-2.5,1.7c-1.5-1.1-4,0.6-3.8-2.1c0.1-2.5,2.3-1.1,3.6-1.3C370.8,10.9,372.8,10.6,372.3,12.8z"
		/>
	<path d="M372.4,17c0.1,0.3-0.8,1-1.3,1.1c-0.9,0.2-1.9,0-2.8,0.1c-2,0.2-2.6-0.7-2.1-2.9c1.6,0,3.4-0.1,5,0.1
		C371.7,15.5,372.3,16.4,372.4,17z"/>
</g>
</svg>
