<svg id="Layer_1" data-name="Layer 1" xmlns="http://www.w3.org/2000/svg" viewBox="0 0 703 502"><defs><style>.cls-1{font-size:18px;font-family:MyriadPro-Regular, Myriad Pro;}.cls-2{letter-spacing:-0.02em;}.cls-3{letter-spacing:-0.01em;}.cls-4{letter-spacing:0em;}.cls-5{letter-spacing:0em;}.cls-6{letter-spacing:0em;}.cls-7{letter-spacing:-0.05em;}.cls-8{letter-spacing:-0.07em;}.cls-9{letter-spacing:-0.01em;}.cls-10{letter-spacing:0.02em;}.cls-11{letter-spacing:-0.01em;}.cls-12{letter-spacing:0em;}.cls-13{letter-spacing:0em;}.cls-14{letter-spacing:-0.04em;}.cls-15{letter-spacing:-0.02em;}.cls-16{fill:#fff1b2;}.cls-17{fill:#fff;}.cls-17,.cls-18{stroke:#000;stroke-miterlimit:10;stroke-width:2px;}.cls-18{fill:none;}</style></defs><title>WOTB-map</title><path d="M5.5,282.77c7.26,0,14.49.15,21.72.43s14.44.66,21.66,1.09c14.42.86,28.8,2.14,43.19,3.42l86.31,7.6,43.15,3.79L243,300.61c1.79.11,3.57.3,5.37.34l5.4.08,10.8.17,10.8.17,10.83.09,21.66.17,43.34.33,43.33.41c14.44.13,28.89.35,43.38.78,3.63.11,7.25.24,10.92.44.92.05,1.85.12,2.79.19s1.91.19,2.83.31c1.85.23,3.64.47,5.44.73,7.19,1,14.33,2.13,21.48,3.26q21.44,3.38,42.79,7.14,42.72,7.47,85.26,15.95,21.26,4.27,42.46,8.91c7.07,1.53,14.12,3.16,21.07,5.2a157.32,157.32,0,0,1,20.54,7.37,200.52,200.52,0,0,1-21.63-2.6c-7.12-1.19-14.18-2.66-21.23-4.19q-21.17-4.47-42.42-8.55-42.5-8.18-85.22-15.26-21.36-3.53-42.73-6.9C473.15,314.05,466,313,458.9,312c-1.78-.25-3.56-.49-5.3-.7-.87-.11-1.73-.21-2.55-.27s-1.73-.12-2.62-.17c-3.54-.19-7.13-.3-10.73-.4-14.38-.39-28.82-.56-43.26-.65l-43.33-.39-43.32-.46-21.66-.24-10.84-.12-10.86-.2-10.86-.2-5.44-.11c-1.81-.05-3.62-.24-5.43-.36L221,306.07,177.81,302l-86.28-8.26c-14.38-1.36-28.77-2.73-43.11-4.51-7.17-.89-14.34-1.81-21.49-2.87S12.62,284.14,5.5,282.77Z"/><path d="M405,394l.6-1,.47-.72c.14-.21.28-.39.39-.54l.33-.4-4.45,2.72c-.14-4.09-.13-8.17-.07-12.25s.26-8.15.4-12.23l.86-24.46,1.73-48.92,2-48.91,1.06-24.46,1.17-24.44,2.36-48.89,2.58-48.89,1.29-24.44c.41-8.15.88-16.29,1.48-24.43s1.31-16.28,2.21-24.4S421.27,11.11,422.64,3c.65,8.19.94,16.37,1.12,24.55s.17,16.34.06,24.5-.36,16.31-.66,24.47L422.3,101l-1.71,48.92-1.93,48.91-1,24.46-1.09,24.45-2.32,48.89-2.56,48.89-1.28,24.44c-.22,4.07-.4,8.15-.68,12.22s-.64,8.14-1.14,12.2l-4.45,2.72a3.94,3.94,0,0,1,.09-.51c0-.19.09-.41.15-.65l.23-.83Z"/><path d="M693.5,130.28c-12.77.17-25.51-.18-38.24-.69s-25.45-1.27-38.17-1.91l-76.33-3.94-76.34-3.94-4.77-.25-2.38-.12c-.38,0-.83-.05-1.16-.05h-1a28.27,28.27,0,0,0-8.43,1.72,76.91,76.91,0,0,0-16.26,8.43q-3.89,2.56-7.59,5.41c-1.23.95-2.46,1.92-3.62,2.9-.68.57-1.34,1-2,1.55l-1.89,1.46-15.18,11.6Q369.8,175.68,339.58,199q-15.1,11.7-30.11,23.49c-5,3.94-10,7.89-14.88,11.88-1.23,1-2.46,2-3.65,3s-2.45,2-3.54,3L286,241.74l-.36.33h0l.09-.11c.05-.06.11-.22.09-.16l-.16.46a35.13,35.13,0,0,0-.85,4.11c-.92,6-1.44,12.38-1.94,18.66s-.88,12.64-1.23,19c-.7,12.68-1.24,25.39-1.73,38.1q-1.41,38.13-2.15,76.32l-9-.2q1-38.25,2.6-76.46c.55-12.75,1.17-25.49,1.95-38.24.39-6.38.82-12.76,1.35-19.15s1.09-12.76,2.16-19.32a40,40,0,0,1,1.17-5.22l.28-.8c.09-.25.28-.65.43-1a6.55,6.55,0,0,1,.86-1.25l.51-.49,2.06-1.91c1.3-1.14,2.51-2.09,3.78-3.14s2.5-2,3.76-3c5-4,10.05-7.91,15.09-11.82q15.15-11.7,30.38-23.24,30.43-23.13,61-46l15.3-11.46,1.91-1.42c.6-.46,1.25-.91,1.79-1.36,1.29-1.05,2.57-2,3.88-3q3.92-2.93,8-5.56a82.2,82.2,0,0,1,17.71-8.87A34.37,34.37,0,0,1,455,113.57l1.38,0c.47,0,.81,0,1.23.07l2.38.15,4.77.31L541,119.07,617.31,124c12.71.84,25.42,1.59,38.13,2.53S680.84,128.63,693.5,130.28Z"/><path d="M551.55,496c-.55-29,3.68-57.24,8.23-85.42s9.61-56.31,15.77-84.31q2.28-10.51,4.94-21c1.79-7,3.63-14,6-21,.61-1.77,1.26-3.55,2-5.38.41-.93.76-1.82,1.27-2.82.26-.5.43-.93.76-1.49s.62-1.06,1-1.63c.25-.33.5-.67.76-1l.4-.49.2-.23.14-.14,1.17-1.1,1.17-1.09c.4-.36.75-.62,1.13-.94l2.24-1.81c.74-.58,1.48-1.11,2.23-1.67,6-4.36,11.92-8.33,17.92-12.28,24.26-15.32,47.46-31.77,74.58-42.45-20.28,21-45.23,35.15-68.14,51.87-5.75,4.11-11.5,8.28-16.88,12.57l-2,1.6-1.88,1.61c-.29.26-.65.54-.9.79l-.76.76-.77.75-.09.09v0a.06.06,0,0,1,0,0,.18.18,0,0,1-.05.07l-.37.68c-.13.2-.28.61-.42.9-.3.59-.57,1.37-.86,2.08-.56,1.49-1.09,3.08-1.59,4.69-2,6.5-3.72,13.34-5.33,20.18s-3.11,13.78-4.61,20.7q-4.4,20.81-8.52,41.75c-2.82,13.93-5.49,27.91-8.24,41.88C567,440.8,561.69,468.77,551.55,496Z"/><path d="M216.5,302.57c-.48-25-.63-50-.73-75l0-37.51,0-9.37V176l.23-4.68.94-18.73L219,115.13l1-18.72,1.13-18.71,2.24-37.43c.35-6.24.86-12.47,1.77-18.69A116.41,116.41,0,0,1,229.2,3a116,116,0,0,1,2.26,18.85c.31,6.26.23,12.5,0,18.74L230.15,78l-.65,18.71-.74,18.71-1.49,37.41-.84,18.71-.2,4.67v4.68l0,9.36,0,37.43c-.1,25-.25,49.91-.73,74.87Z"/><rect x="341" y="283" width="18" height="14"/><text class="cls-1" transform="translate(291.18 328.24)"><tspan class="cls-2">F</tspan><tspan x="8.46" y="0">lo</tspan><tspan class="cls-3" x="22.59" y="0">r</tspan><tspan class="cls-4" x="28.3" y="0">e</tspan><tspan class="cls-5" x="37.31" y="0">n</tspan><tspan x="47.23" y="0">tine </tspan><tspan class="cls-6" x="80.23" y="0">R</tspan><tspan x="89.98" y="0">d</tspan></text><text class="cls-1" transform="translate(291.48 215.34) rotate(-37.31)">E<tspan class="cls-7" x="8.86" y="0"> </tspan><tspan class="cls-8" x="11.84" y="0">Y</tspan><tspan class="cls-9" x="20.32" y="0">a</tspan><tspan class="cls-5" x="28.85" y="0">v</tspan><tspan x="37.44" y="0">apai </tspan><tspan class="cls-6" x="73.06" y="0">R</tspan><tspan x="82.82" y="0">d</tspan></text><text class="cls-1" transform="translate(433.62 276.48) rotate(-86.33)">N <tspan class="cls-6" x="15.66" y="0">R</tspan><tspan x="25.42" y="0">obe</tspan><tspan class="cls-10" x="54.56" y="0">r</tspan><tspan x="60.87" y="0">t </tspan><tspan class="cls-6" x="70.65" y="0">R</tspan><tspan x="80.4" y="0">d</tspan></text><text class="cls-1" transform="translate(629.21 287.42) rotate(-35.92)">N N<tspan class="cls-11" x="27.5" y="0">a</tspan><tspan class="cls-12" x="36.04" y="0">v</tspan><tspan class="cls-13" x="44.62" y="0">ajo Dr</tspan></text><text class="cls-1" transform="translate(241.9 207.71) rotate(-86.33)">N<tspan class="cls-14" x="11.84" y="0"> </tspan><tspan class="cls-15" x="15.01" y="0">W</tspan><tspan x="29.95" y="0">indsong Dr</tspan></text><path class="cls-16" d="M693.5,445.52c-14.33-2.63-28.54-5.6-42.76-8.48l-42.57-8.74c-14.17-2.9-28.35-5.76-42.55-8.44s-28.45-5.12-42.73-7.3q-42.83-6.6-86-9.86c-14.35-1.05-28.77-1.89-43.11-2.1L383,400.34c-3.58,0-7.13.05-10.75.11q-10.81.18-21.63.55c-7.2.27-14.41.55-21.62.88s-14.41.75-21.62,1.2-14.4,1-21.61,1.52-14.4,1.13-21.59,1.76Q221,410.17,178,415.79q-21.52,2.76-43,5.91L113.55,425,92.1,428.34c-14.31,2.18-28.65,4.25-43.06,6s-28.88,3.28-43.54,4c13.78-5.05,27.78-9.16,41.87-12.81S75.68,418.72,90,416q42.91-7.92,86.18-14c14.41-2,28.86-3.85,43.31-5.59s29-3.17,43.48-4.45,29-2.42,43.6-3.26,29.13-1.52,43.72-1.81q11-.24,21.89-.26c3.64,0,7.34,0,11,0l11,.42c14.68.41,29.23,1.46,43.8,2.73,29.1,2.58,58,6.65,86.74,11.63q21.54,3.74,42.93,8.23c14.25,3,28.46,6.15,42.57,9.75,7,1.78,14.08,3.69,21.09,5.64s14,4,20.93,6.2C666.11,435.62,679.91,440.27,693.5,445.52Z"/><rect class="cls-17" x="316.91" y="380.37" width="42" height="27" rx="12" ry="12"/><path d="M335.46,387.18a7.86,7.86,0,0,0-1.68.1,6.73,6.73,0,0,0-5.75,5.88h.07a5,5,0,0,1,4-1.91c2.92,0,5,2.11,5,5.35a5.54,5.54,0,0,1-5.5,5.82c-3.54,0-5.85-2.75-5.85-7.05a10.39,10.39,0,0,1,2.8-7.45,9,9,0,0,1,5.29-2.45,10.81,10.81,0,0,1,1.63-.12Zm-.64,9.54c0-2.36-1.35-3.79-3.41-3.79a3.7,3.7,0,0,0-3.21,2,1.9,1.9,0,0,0-.25,1c.05,2.72,1.3,4.73,3.64,4.73C333.52,400.69,334.82,399.09,334.82,396.72Z"/><path d="M340.37,400.57a9.11,9.11,0,0,0,1.8-.08,6.24,6.24,0,0,0,3.46-1.6,7.24,7.24,0,0,0,2.19-4.41h-.07a4.86,4.86,0,0,1-3.9,1.78A4.78,4.78,0,0,1,339,391.2a5.67,5.67,0,0,1,5.65-5.88c3.38,0,5.47,2.75,5.47,7a10.47,10.47,0,0,1-2.85,7.77,8.31,8.31,0,0,1-4.81,2.21,10.7,10.7,0,0,1-2.06.13Zm.81-9.52c0,2.06,1.25,3.51,3.18,3.51a3.72,3.72,0,0,0,3.26-1.73,1.46,1.46,0,0,0,.2-.82c0-2.82-1-5-3.38-5C342.53,387,341.18,388.71,341.18,391.05Z"/><path d="M360.18,249.19c-.05.2-.75.49-1.2.49-2,0-4.13,0-6.43,0v3.89c.05,4.68.2,9.36.15,14.1,0,.64-.79,1.39-1.34,1.89-1.3,1.25-1.3,1.15-2.54.05a3.38,3.38,0,0,1-1.3-3c.15-5,.2-10,.25-15v-2H340.4v-3.74h19.78A19.6,19.6,0,0,1,360.18,249.19Z"/><path d="M352.6,240.32a1.1,1.1,0,0,1-.74.4,8.85,8.85,0,0,1-1.15.05h-1.09c-1.1.15-1.85-.15-1.95-1.4a1.86,1.86,0,0,1,1.7-2.29A6,6,0,0,1,351,237,2.19,2.19,0,0,1,352.6,240.32Z"/><path d="M351.81,242.26c-.05.35-.85.6-1.25.85-.75-.55-2,.3-1.89-1.05s1.14-.54,1.79-.64S352.06,241.17,351.81,242.26Z"/><path d="M351.86,244.36c.05.14-.4.49-.65.54a13.1,13.1,0,0,1-1.4,0c-1,.1-1.29-.35-1-1.44a20.7,20.7,0,0,1,2.49.05C351.51,243.61,351.81,244.06,351.86,244.36Z"/><circle class="cls-18" cx="350" cy="254" r="21.21"/></svg>