<?xml version="1.0" standalone="no"?>
<!DOCTYPE svg PUBLIC "-//W3C//DTD SVG 20010904//EN"
 "http://www.w3.org/TR/2001/REC-SVG-20010904/DTD/svg10.dtd">
<svg version="1.0" xmlns="http://www.w3.org/2000/svg"
 width="700.000000pt" height="700.000000pt" viewBox="0 0 700.000000 700.000000"
 preserveAspectRatio="xMidYMid meet">
<metadata>
Created by potrace 1.11, written by Peter Selinger 2001-2013
</metadata>
<g transform="translate(0.000000,700.000000) scale(0.100000,-0.100000)"
fill="#000000" stroke="none">
<path d="M3895 6205 c-63 -37 -61 -49 4 -16 31 16 73 52 60 51 -2 0 -31 -16
-64 -35z"/>
<path d="M3280 5991 c-19 -9 -45 -32 -58 -51 -20 -29 -23 -43 -18 -82 6 -57
21 -83 64 -110 31 -19 49 -21 227 -21 219 0 252 9 287 73 33 63 14 141 -45
184 -26 19 -43 21 -225 22 -164 1 -203 -1 -232 -15z"/>
<path d="M3280 5569 c-49 -22 -74 -60 -76 -119 -3 -57 21 -102 68 -126 28 -15
64 -18 218 -19 225 -1 258 7 295 78 17 34 13 108 -8 140 -35 54 -65 61 -270
62 -158 1 -195 -2 -227 -16z"/>
<path d="M1489 5110 c-1 -20 -1 -698 0 -727 l1 -23 748 0 748 0 -2 -222 c-1
-123 -5 -545 -8 -938 -4 -393 -9 -956 -12 -1250 -3 -294 -7 -701 -8 -905 -2
-203 0 -372 4 -375 6 -4 253 -239 399 -380 14 -14 52 -50 84 -80 l59 -55 40
45 c41 45 243 260 377 400 l71 75 -5 515 c-3 283 -8 657 -10 830 -2 173 -7
540 -10 815 -4 275 -8 615 -10 755 -3 251 -7 733 -6 758 1 9 164 12 781 12
617 0 780 3 780 13 4 95 -2 743 -6 747 -3 3 -908 5 -2010 5 -1775 0 -2004 -2
-2005 -15z"/>
</g>
</svg>
